<?xml version="1.0" encoding="UTF-8" standalone="no"?>
<!-- Uploaded to: SVG Repo, www.svgrepo.com, Generator: SVG Repo Mixer Tools -->

<svg
   fill="#000000"
   width="200px"
   height="200px"
   viewBox="0 0 1024 1024"
   version="1.1"
   id="svg20"
   sodipodi:docname="paper.svg"
   inkscape:version="1.2.2 (732a01da63, 2022-12-09, custom)"
   xmlns:inkscape="http://www.inkscape.org/namespaces/inkscape"
   xmlns:sodipodi="http://sodipodi.sourceforge.net/DTD/sodipodi-0.dtd"
   xmlns="http://www.w3.org/2000/svg"
   xmlns:svg="http://www.w3.org/2000/svg">
  <defs
     id="defs24" />
  <sodipodi:namedview
     id="namedview22"
     pagecolor="#505050"
     bordercolor="#ffffff"
     borderopacity="1"
     inkscape:showpageshadow="0"
     inkscape:pageopacity="0"
     inkscape:pagecheckerboard="1"
     inkscape:deskcolor="#505050"
     showgrid="false"
     inkscape:zoom="1.4955308"
     inkscape:cx="19.056779"
     inkscape:cy="43.462829"
     inkscape:window-width="1920"
     inkscape:window-height="1013"
     inkscape:window-x="0"
     inkscape:window-y="31"
     inkscape:window-maximized="1"
     inkscape:current-layer="svg20" />
  <path
     d="m 811.12902,218.38404 c 0,-11.31827 -3.61466,-18.8635 -10.84315,-26.40961 L 691.85429,78.791637 C 681.01114,67.473357 670.16798,63.700303 659.32482,67.473357 H 258.12799 c -25.30098,-3.773054 -50.60113,18.863504 -57.83046,49.046173 v 773.41519 c 0,33.95483 25.30098,60.36444 57.83046,60.36444 h 491.55676 c 32.52947,0 57.83045,-26.40961 57.83045,-60.36444 V 225.92928 l 3.61468,-7.54524 c 0,3.77307 0,3.77307 0,0 z m -36.14413,0 c 3.61466,3.77307 0,11.31829 -3.61467,11.31829 H 673.7818 c -10.84316,0 -18.07165,-7.54522 -18.07165,-18.86351 V 108.97431 c 0,-7.54523 7.22849,-7.54523 10.84316,-3.77306 z m 3.61466,671.55068 c 0,15.09133 -10.84315,26.40961 -25.30098,26.40961 H 258.12799 c -14.45783,0 -25.30098,-11.31828 -25.30098,-26.40961 V 120.2917 c 3.61466,-11.31828 10.84315,-18.8635 25.30098,-18.8635 h 361.43886 v 109.41062 c 0,30.18179 21.68632,56.5914 54.21579,56.5914 H 778.59955 V 889.9356 Z"
     id="path18"
     style="stroke-width:0.865482;fill:#d8d9da;fill-opacity:1" />
</svg>
