<?xml version="1.0" encoding="UTF-8" standalone="no"?>
<!-- Uploaded to: SVG Repo, www.svgrepo.com, Generator: SVG Repo Mixer Tools -->

<svg
   width="800px"
   height="800px"
   viewBox="0 0 64 64"
   version="1.1"
   id="svg20"
   sodipodi:docname="rock.svg"
   inkscape:version="1.2.2 (732a01da63, 2022-12-09, custom)"
   xmlns:inkscape="http://www.inkscape.org/namespaces/inkscape"
   xmlns:sodipodi="http://sodipodi.sourceforge.net/DTD/sodipodi-0.dtd"
   xmlns="http://www.w3.org/2000/svg"
   xmlns:svg="http://www.w3.org/2000/svg">
  <defs
     id="defs24" />
  <sodipodi:namedview
     id="namedview22"
     pagecolor="#505050"
     bordercolor="#ffffff"
     borderopacity="1"
     inkscape:showpageshadow="0"
     inkscape:pageopacity="0"
     inkscape:pagecheckerboard="1"
     inkscape:deskcolor="#505050"
     showgrid="false"
     inkscape:zoom="1.0575"
     inkscape:cx="400"
     inkscape:cy="400"
     inkscape:window-width="1920"
     inkscape:window-height="1013"
     inkscape:window-x="0"
     inkscape:window-y="31"
     inkscape:window-maximized="1"
     inkscape:current-layer="svg20" />
  <path
     d="m52.73 23.3c-2.87-4.38-3-9.88-5.12-11.88s-6.94-3.06-9.94-2.93-4.56 1.56-8 3.06-4.94.87-6 1a5.67 5.67 0 0 0 -1.87.56s-2.25-.75-6.13 1.38-2.61 5.74-4.06 7.06c-2.06 1.87-4.94 4.62-5.61 7.62s2.3 13.32 4.3 17.69 5.75 6.88 7.31 7a25.69 25.69 0 0 0 6.75-1.12 8.8 8.8 0 0 1 4.75.12c1.56.38 5.37 2.25 9.56 2.63s6.75-2.25 7.75-3.13a52.15 52.15 0 0 0 6.5-7.56c3.25-4.38 5.13-7.31 5.19-10.31s-2.5-6.82-5.38-11.19zm-29.68-8.94c.32-.07 1.25 0 4.06-.44s6.31-2.87 6.56-2.43.06 3.12-1.06 4.06-3.88 1.12-5.63.81-4.5-1.87-3.93-2zm29.25 28.13c-2.82 3.25-6.82 9.31-8.82 10.25a12.59 12.59 0 0 1 -7.31.81c-2.37-.5-5.06-3.38-9.25-2.94s-6.37 2.39-9.75 1.31-6.44-8.75-7.62-13.31-2.75-8.31-1.19-10.81 4.19-4.94 4.87-5.94 1.5-4.56 2.75-5.5 4.38-2.19 4.94-1.75a8.48 8.48 0 0 0 4.81 3c3.5.94 6 1.06 8.38-1.19a5.43 5.43 0 0 0 1.94-4.62 3 3 0 0 1 .56-1.38c.25-.18 8.25.32 10.06 2.63s2.25 8.75 4.94 12.75 4.19 6.06 4.19 8.62-.69 4.82-3.5 8.07zm-35.3-22.49a10.68 10.68 0 0 0 1.17-2.13c.25-.54 1.71-.62 2-.79s0-.62-.12-.91-1.92.25-2.5.58a5.88 5.88 0 0 0 -1.55 3c.11.15.73.45 1 .25zm-6 6.79a11.84 11.84 0 0 0 -1.37 2.83 8.64 8.64 0 0 0 .08 2.55c.08.54 1 .2 1.29.08s-.08-1.13-.08-2.42 1.29-2.25 1.46-2.54-1.18-.69-1.44-.47zm33.32-10.3a2.42 2.42 0 0 0 -3.5-2.59 2.5 2.5 0 0 0 -.84 4c.96.84 3.96.88 4.34-1.41zm-3-1.53a1.21 1.21 0 0 1 1.76 1.3c-.19 1.15-1.7 1.13-2.18.69a1.25 1.25 0 0 1 .43-1.95zm-9.5 8.04c.18-2-1.82-2.26-2.63-2-1.67.41-1.67 2.7-.75 3.16s3.17.91 3.38-1.16zm-2.59.28a.8.8 0 0 1 .32-1.28c.36-.09 1.22 0 1.13.89s-1.05.62-1.45.42zm-2.08 2.72c-2.54-1.13-6.12-1.51-7.54-.83a13.75 13.75 0 0 0 -5.13 5.33 7.19 7.19 0 0 0 -.5 6.33c.79 1.79 2.13 1.5 3.42 1.75a4.19 4.19 0 0 1 2.33 1.84c.42.45 2.46.37 3 .29a6.32 6.32 0 0 0 2.67-1.81c.71-.9 1.6-3.29 2.6-6.79s1.69-4.96-.85-6.11zm.5 3a58.3 58.3 0 0 1 -2.13 6.08c-.87 2.38-.87 2.92-2.16 3.71s-2.25 1.09-2.59.75a6.33 6.33 0 0 0 -2.87-2c-1.5-.37-2.63-.66-2.79-1.12a7.78 7.78 0 0 1 .37-5.38c1.17-2.08 3.59-4.58 4.84-5 .8-.3 4.25.5 5.45.88s2.05 1.08 1.88 2.15zm16.79 2.38a5.14 5.14 0 0 0 2.13-7.09 5.75 5.75 0 0 0 -7.46-2.71c-3.79 2.13-4.42 6-2.67 8.63s5.88 2.15 8 1.24zm-7.5-5c.21 0 1.33 2.37 1.67 2.29s.66-.83.54-1a16.06 16.06 0 0 1 -1.58-2.71c.12-.12.54-1.12.75-.87s1.33 3.25 1.58 3.08.67-.92.5-1.21-1.54-2.5-1.33-2.71 1.16-.91 1.33-.75.71 2.17 1 2.21a.6.6 0 0 0 .6-.51c0-.3-.5-1.88-.21-2a4.77 4.77 0 0 1 3.63 2.58c1.08 2.17.67 3.5-.08 4.54a5.68 5.68 0 0 1 -5.55 1.79 3.61 3.61 0 0 1 -2.89-2.91c-.08-.63-.17-1.71.04-1.71zm-20.87 7.02a21.16 21.16 0 0 0 1.66 3c.21.09.46 0 .75-.25s-1.25-3-1.58-3.33-.96.28-.83.58zm1.54-2.54a28.93 28.93 0 0 0 2.29 4.71.7.7 0 0 0 .5-.79 22.57 22.57 0 0 0 -2-4.42c-.25-.16-.73.21-.79.5zm1.83-2.08a38.56 38.56 0 0 0 1.71 4c.21.17.5-.17.58-.75a12.31 12.31 0 0 0 -1.5-3.87c-.23-.16-.85.42-.79.62zm2.25-1.17a6.45 6.45 0 0 0 .75 2.13c.25.29.5-.09.67-.46a4 4 0 0 0 -.46-1.92c-.13-.12-.96.01-.96.25zm12.75 8.13a1.83 1.83 0 0 0 -2.54-1.92c-1.58.75-1.75 2.42-.88 3.17s3.42.66 3.42-1.25zm-2.56.39c-.36-.3-.29-1 .36-1.29a.74.74 0 0 1 1 .78c.03.79-1 .82-1.36.51zm17.5-5.2c-2 .94-2.19 3-1.09 4s4.27.83 4.27-1.56a2.29 2.29 0 0 0 -3.18-2.44zm-.29 3.16a1.35 1.35 0 0 1 .61-2.2 1.27 1.27 0 0 1 1.77 1.33c0 1.34-1.77 1.39-2.38.87zm-24.86 9.91a2 2 0 0 0 -.75 3.41c.84.71 3.46 1.34 4-.91s-2.07-3.05-3.25-2.5zm2.37 2.29c-.33 1.38-1.94 1-2.45.56a1.25 1.25 0 0 1 .46-2.1c.72-.34 2.33.14 1.99 1.53zm18.4-4.29c-1.71-.25-3.87.62-5.75 1.16s-2.67-.57-3.54-.25a6.37 6.37 0 0 0 -2.83 3.71c-.09 1 1.54 2.38 2.33 2.75a7.12 7.12 0 0 0 3.08.46c1.55 0 2.25.71 3.25.87s1.53-.7 2.46-1.59a33 33 0 0 0 2.88-2.62 5.43 5.43 0 0 0 .41-2.63 2.37 2.37 0 0 0 -2.29-1.86zm1.29 3.7c-.16.25-1.79 1.42-2.54 2.34s-1.33 1.58-1.91 1.62-1.71-.71-2.67-.87-2.54 0-3.42-.42a2.22 2.22 0 0 1 -1.37-1.58 4.7 4.7 0 0 1 .87-2.21s.09 2.42.34 2.5.66.12.66-.08-.33-3 0-3.05.71.05.75.17-.08 3.13.25 3.17.67.16.67 0 0-3 0-3 .5 0 .58.12 0 3 .34 3.09.66 0 .66-.21a20.84 20.84 0 0 1 -.1-3.29c.17 0 1-.46 1-.29s0 2.41.21 2.41.83 0 .83-.29-.21-2.21 0-2.33 1.17-.5 1.21-.33-.08 1.62.09 1.62.66 0 .66-.29 0-1.54.17-1.58 2.25 0 2.5.54a3.89 3.89 0 0 1 .2 2.19zm-10-8.41c.12.08 1.2 3.5 1.2 3.5a2.28 2.28 0 0 0 1-.21c.3-.21-1.08-3.42-1.25-3.58s-1.19.06-.92.24zm3.41 1.37a9.85 9.85 0 0 0 -.87-3.71c-.29-.2-.9.27-1 .42a24.72 24.72 0 0 0 .91 3.46c.08.17.78.03.99-.22zm.59-4.12a13.65 13.65 0 0 0 .25 3.16c.12.34.75.05.91-.08a14.94 14.94 0 0 0 -.37-3.17c-.08-.34-.64-.13-.76.04zm5.45 5c-.08-.08-.58.71-.54.92a30.94 30.94 0 0 0 3 2.29c.67.5.73-.11.73-.54s-3.02-2.55-3.16-2.68zm1-2.38c-.25-.08-.76.32-.71.55a27 27 0 0 0 3.67 3.79c.21 0 .42-.34.63-.5s-3.33-3.76-3.6-3.85zm2.09-1c-.34-.2-.75.5-.75.5s2.45 3.17 2.66 3.3.67-.38.75-.67-2.34-2.93-2.67-3.14z"
     fill="#1d1d1b"
     id="path18" />
  <path
     style="fill:#000000;stroke-width:0.945626"
     d="m 483.52904,693.01887 c -20.69853,-1.59862 -46.07624,-7.51293 -74.8466,-17.44308 -57.59296,-19.87833 -57.03289,-19.73592 -77.24036,-19.63958 -14.61085,0.0697 -18.17247,0.63576 -39.93799,6.34793 -22.6515,5.94469 -49.97844,10.02838 -67.23308,10.04718 -7.10288,0.008 -9.42126,-0.4186 -15.48964,-2.84849 -18.11781,-7.25474 -40.14308,-25.47594 -57.17194,-47.29759 C 136.17969,602.41278 126.48465,582.7233 112.12575,541.99851 87.370975,471.7889 70.64307,393.01489 75.079154,367.54102 c 4.253143,-24.42336 19.50361,-47.68298 53.270346,-81.24658 23.81918,-23.6759 23.80733,-23.65747 28.18948,-43.85622 5.55381,-25.59933 10.43812,-36.27561 21.78844,-47.62594 8.19977,-8.19976 22.68763,-16.73207 40.27214,-23.71738 15.76526,-6.26263 38.1729,-9.79699 49.158,-7.75369 4.22464,0.78581 5.59589,0.61254 10.30076,-1.30161 9.42818,-3.8358 17.52634,-4.9432 35.41686,-4.84314 27.66239,0.1547 39.91377,-3.57884 86.05201,-26.22387 45.92392,-22.53983 53.77853,-24.75814 84.4958,-23.8634 48.47574,1.41201 98.84746,19.61634 115.73603,41.82698 8.14429,10.71079 11.32204,18.82023 28.16187,71.86761 12.33249,38.84875 18.62216,52.0338 41.7261,87.47045 49.31599,75.64053 60.56105,103.84387 54.73185,137.271 -3.80038,21.79297 -17.53777,49.57371 -41.55047,84.02636 -12.2046,17.51075 -36.57671,50.36532 -47.10886,63.5046 -21.31446,26.59062 -53.14807,59.9577 -69.89375,73.26062 -19.49261,15.48511 -41.82422,25.19324 -60.82825,26.44362 -3.6588,0.24072 -7.92895,0.55173 -9.48924,0.69112 -1.56028,0.13938 -6.95094,-0.0643 -11.97923,-0.45268 z m 27.86526,-23.4561 c 11.41427,-2.27652 24.61319,-6.36255 32.1034,-9.93837 13.3598,-6.37795 28.87347,-23.71643 77.54177,-86.66273 10.69366,-13.83089 25.27047,-32.12876 32.39293,-40.66193 32.61262,-39.07211 44.0732,-64.91355 44.14701,-99.54315 0.0577,-27.04902 -5.98439,-41.10946 -39.24639,-91.33029 -27.76808,-41.92583 -31.87778,-51.33369 -49.85753,-114.13345 -12.61256,-44.05321 -18.04377,-57.39079 -27.21766,-66.83911 -10.60654,-10.92386 -33.82797,-19.77636 -67.32851,-25.66706 -16.7642,-2.9478 -41.20446,-5.41338 -50.0725,-5.05142 l -7.06517,0.28838 -2.80499,5.4917 c -2.44724,4.79126 -2.89469,6.92698 -3.50816,16.74468 -0.8638,13.82359 -2.5761,20.91818 -7.41408,30.7187 -9.80372,19.85981 -31.93291,37.18493 -54.52889,42.69107 -8.77175,2.13747 -28.05303,2.08484 -40.54499,-0.11069 -38.76984,-6.81399 -59.71474,-16.21379 -78.8195,-35.37315 l -8.84316,-8.86842 -4.66951,0.1052 c -14.81511,0.33378 -50.0881,15.69492 -59.60976,25.95964 -5.33093,5.74694 -10.28379,15.54034 -19.15111,37.86797 -4.89824,12.33361 -9.96376,24.21914 -11.25672,26.41226 -1.29295,2.19314 -9.43891,11.85986 -18.10213,21.48161 -25.89574,28.76094 -41.22119,48.56435 -46.49113,60.07539 -5.092435,11.12336 -6.307684,26.30586 -3.583329,44.76779 2.42708,16.44742 22.271069,90.76013 31.706369,118.7355 22.59438,66.99165 52.96254,117.00388 78.68048,129.57603 10.94199,5.34898 17.21671,6.61901 32.33809,6.5454 15.17122,-0.0738 18.37193,-0.67958 47.11781,-8.91709 26.04895,-7.46466 40.09522,-10.29301 54.53703,-10.98158 24.60776,-1.17324 39.98977,3.35259 78.487,23.09317 22.37449,11.47316 25.9046,12.84172 38.3365,14.86233 12.40889,2.01687 39.33014,1.33353 52.72683,-1.33838 z M 381.69509,204.67611 c 24.21557,-3.94437 34.2258,-13.33316 39.03389,-36.61065 1.61349,-7.8114 1.98344,-22.09188 0.62778,-24.23291 -1.45952,-2.30505 -6.49114,-0.63806 -26.12128,8.65405 -39.37558,18.63881 -51.2808,21.87418 -93.97682,25.53919 -8.56594,0.7353 -13.77021,1.57859 -13.99875,2.26833 -1.31687,3.97423 23.0437,17.05491 42.13024,22.62231 14.10518,4.11437 33.7843,4.77643 52.30494,1.75968 z"
     id="path270"
     transform="scale(0.08)" />
  <path
     style="fill:#000000;stroke-width:0.945626"
     d="m 204.49173,249.02271 c -4.03328,-1.67292 -4.20257,-2.49725 -2.02129,-9.84241 3.87917,-13.06261 13.9255,-28.04951 20.85851,-31.11631 5.542,-2.4515 15.67111,-5.40405 21.3048,-6.21018 4.29697,-0.61486 4.5089,-0.53055 6.37944,2.53761 1.06415,1.74548 1.93641,4.3108 1.93836,5.70073 0.004,2.76533 -0.65399,3.08607 -12.16679,5.93197 -11.18874,2.76579 -11.84418,3.32929 -18.07247,15.53726 -6.47651,12.69447 -10.86352,19.05023 -13.10142,18.98091 -0.86518,-0.0268 -3.16879,-0.71061 -5.11914,-1.51958 z"
     id="path272"
     transform="scale(0.08)" />
  <path
     style="fill:#000000;stroke-width:0.945626"
     d="m 123.75273,404.32359 c -2.48503,-1.77163 -3.31287,-7.43988 -3.29467,-22.55856 0.0141,-11.71136 1.14974,-16.03078 7.63995,-29.05874 6.36471,-12.77603 9.79104,-17.95452 11.87956,-17.95452 2.87739,0 11.04173,2.55005 13.18728,4.11891 1.75264,1.28156 1.61284,1.57891 -3.23663,6.88448 -7.23098,7.91107 -11.10067,14.16296 -12.77433,20.63828 -1.45827,5.642 -1.28808,10.7784 0.99585,30.0546 l 0.64355,5.43149 -3.20279,1.33763 c -5.51354,2.30268 -9.62128,2.68662 -11.83777,1.10643 z"
     id="path274"
     transform="scale(0.08)" />
  <path
     style="fill:#000000;stroke-width:0.945626"
     d="m 252.50101,507.3557 c -2.89584,-0.77706 -5.26285,-2.0997 -6.14658,-3.4346 -7.99369,-12.07473 -20.44652,-20.65661 -32.73574,-22.55987 -3.06948,-0.47538 -8.69876,-1.326 -12.50952,-1.89027 -16.08824,-2.38224 -24.14575,-10.77347 -29.62884,-30.85599 -2.99091,-10.95457 -2.99845,-31.66527 -0.0157,-42.94121 3.71632,-14.04891 13.42863,-32.23949 25.59684,-47.94141 13.66653,-17.63536 40.10418,-39.89011 52.58387,-44.2642 6.30176,-2.20874 26.69488,-2.97217 38.96581,-1.4587 24.85506,3.06557 52.66121,12.28458 62.92638,20.86299 8.48412,7.09003 10.88901,16.99667 7.80117,32.13601 -0.90102,4.4176 -4.59332,18.24684 -8.20511,30.73164 -12.12316,41.90585 -21.91722,69.5075 -29.43185,82.94491 -5.9892,10.7097 -19.57542,22.06883 -33.46101,27.97603 -4.29617,1.82767 -6.5213,2.07811 -17.96691,2.02219 -7.71272,-0.0377 -14.99242,-0.58143 -17.77286,-1.32752 z m 24.05118,-14.04639 c 8.64099,-3.49026 19.72259,-10.11511 24.23901,-14.49068 5.01984,-4.8633 8.28151,-11.25507 14.40436,-28.22761 2.62673,-7.28133 7.73673,-20.89835 11.35556,-30.26005 3.61882,-9.3617 9.66082,-26.53792 13.42666,-38.16937 6.74022,-20.81833 6.82964,-21.22558 5.73478,-26.11794 -1.61877,-7.23346 -6.09591,-11.98585 -15.53883,-16.49416 -8.99372,-4.29386 -28.59073,-9.49945 -48.38594,-12.85286 -17.80812,-3.01678 -24.95158,-3.04116 -31.19677,-0.10649 -14.17789,6.66231 -38.81528,31.7437 -53.06814,54.02451 -8.59143,13.43055 -12.6529,28.60747 -12.6529,47.28132 0,11.36735 2.08441,25.106 4.33884,28.59789 2.15354,3.33562 9.69567,6.60533 24.76203,10.73495 19.89303,5.4526 29.9397,11.14133 42.05007,23.81004 l 5.4299,5.68024 4.71118,-0.55797 c 2.59115,-0.30688 7.26674,-1.5902 10.39019,-2.85182 z"
     id="path276"
     transform="scale(0.08)" />
  <path
     style="fill:#000000;stroke-width:0.945626"
     d="m 258.64022,396.4539 c -10.55442,-23.32191 -15.34585,-36.35665 -14.25249,-38.77286 1.06863,-2.36154 6.55895,-6.09201 7.81942,-5.313 1.81602,1.12237 10.6173,20.30437 14.11171,30.75585 4.79025,14.32721 5.36702,19.14968 2.78181,23.25909 -1.06337,1.69031 -2.52802,3.07328 -3.25479,3.07328 -0.78208,0 -3.72301,-5.3068 -7.20566,-13.00236 z"
     id="path278"
     transform="scale(0.08)" />
  <path
     style="fill:#000000;stroke-width:0.945626"
     d="m 277.99182,365.63137 c -1.80285,-3.90201 -4.01119,-10.14996 -4.90744,-13.88432 -1.58203,-6.59182 -1.5769,-6.82823 0.17602,-8.11001 0.99306,-0.72614 3.60855,-1.32026 5.81221,-1.32026 h 4.00664 l 2.03844,5.43736 c 1.12115,2.99054 2.35231,8.35955 2.73592,11.93112 0.61496,5.72553 0.46181,6.84348 -1.29454,9.44972 -3.40407,5.0513 -4.89666,4.4409 -8.56725,-3.50361 z"
     id="path280"
     transform="scale(0.08)" />
  <path
     style="fill:#000000;stroke-width:0.945626"
     d="m 241.86332,431.44208 c -8.53662,-15.43793 -21.05954,-42.84951 -21.05954,-46.09749 0,-1.7354 4.11361,-5.12896 6.56345,-5.41458 1.94762,-0.22706 2.90153,0.96799 7.33982,9.19529 10.52983,19.51921 20.64787,44.61635 19.63355,48.69976 -0.6873,2.76689 -3.09021,5.67376 -4.69011,5.67376 -0.61612,0 -4.12035,-5.42553 -7.78717,-12.05674 z"
     id="path282"
     transform="scale(0.08)" />
  <path
     style="fill:#000000;stroke-width:0.945626"
     d="m 215.79226,444.61988 c -8.9985,-14.98548 -15.03648,-27.40201 -14.36065,-29.53136 0.74595,-2.35026 4.95732,-5.63226 7.22718,-5.63226 1.14652,0 3.11893,2.06487 5.51792,5.77657 4.43011,6.85424 13.22973,24.00482 15.66186,30.52516 l 1.7245,4.62324 -2.5955,2.23256 c -4.90006,4.21485 -6.38528,3.31373 -13.17531,-7.99391 z"
     id="path284"
     transform="scale(0.08)" />
  <path
     style="fill:#000000;stroke-width:0.945626"
     d="m 364.06619,304.60516 c -3.12056,-0.9037 -6.52482,-2.1109 -7.56501,-2.68268 -10.19249,-5.60269 -10.85573,-23.70477 -1.2215,-33.339 10.27566,-10.27566 31.47875,-8.01961 39.00262,4.14996 2.53567,4.10135 2.85176,5.42527 2.81871,11.80585 -0.0402,7.76111 -1.90815,12.79161 -6.25577,16.84719 -5.31137,4.95459 -16.24627,6.2689 -26.77905,3.21868 z m 16.7854,-12.38998 c 3.08971,-2.43036 4.03863,-7.40792 2.23513,-11.72431 -3.17144,-7.59032 -15.42453,-8.48495 -19.09144,-1.39392 -1.6003,3.09463 -1.74687,7.75166 -0.32744,10.40387 2.36772,4.42413 12.89592,6.08717 17.18375,2.71436 z"
     id="path286"
     transform="scale(0.08)" />
  <path
     style="fill:#000000;stroke-width:0.945626"
     d="m 511.80564,228.81818 c -8.30364,-2.09585 -12.98618,-5.75806 -16.89726,-13.21534 -1.88924,-3.60224 -2.23216,-5.63405 -2.23437,-13.23877 -0.002,-8.17374 0.24781,-9.43549 2.77571,-13.99864 3.57125,-6.44649 8.68918,-11.02502 16.31053,-14.59149 5.57906,-2.61075 6.72553,-2.81178 13.82825,-2.42464 8.36423,0.45589 11.82549,1.7721 18.17406,6.91104 5.91882,4.79107 9.20782,11.70144 9.71164,20.40474 1.06363,18.37352 -10.27232,29.98955 -30.00123,30.74247 -4.4586,0.17015 -9.70889,-0.0951 -11.66733,-0.58937 z m 18.48478,-14.51191 c 9.75934,-4.1584 11.90694,-18.10168 3.87437,-25.15437 -8.18466,-7.18622 -18.92144,-5.15414 -24.84117,4.70153 -4.05233,6.74666 -1.70882,16.92931 4.62437,20.09309 3.98288,1.98967 12.09792,2.16831 16.34243,0.35975 z"
     id="path288"
     transform="scale(0.08)" />
  <path
     style="fill:#000000;stroke-width:0.945626"
     d="m 497.39953,400.91702 c -22.09551,-3.41179 -37.31914,-13.87582 -45.84622,-31.51261 -10.91173,-22.56905 -9.12899,-47.85026 4.89129,-69.36399 8.91754,-13.68373 25.63846,-27.58816 38.5561,-32.06168 34.59334,-11.98007 71.73623,4.60501 88.45852,39.49858 9.05919,18.90335 8.06146,42.48557 -2.54122,60.06383 -7.55241,12.5212 -22.56154,24.76117 -35.00755,28.5487 -15.00374,4.5659 -36.40887,6.69586 -48.51092,4.82717 z m 34.17083,-12.31486 c 12.04946,-3.05045 26.78658,-11.76862 34.23646,-20.25356 6.20195,-7.06364 10.55252,-18.9851 10.55252,-28.9161 0,-12.85846 -8.02221,-32.75063 -17.36959,-43.07032 -8.41203,-9.28704 -21.89896,-16.87618 -33.37232,-18.77872 -3.43864,-0.5702 -4.01054,-0.40918 -4.54671,1.28016 -0.33733,1.06282 0.33705,7.05076 1.49862,13.30653 l 2.11194,11.37412 -2.22179,2.36498 c -2.7566,2.93426 -5.2487,3.02159 -6.7726,0.23732 -0.64048,-1.17021 -3.10918,-7.23404 -5.486,-13.47518 -5.32583,-13.98478 -5.80926,-14.19809 -15.98393,-7.05269 -6.28483,4.41366 -6.85549,5.08086 -6.30472,7.37124 0.77997,3.24353 7.77413,17.00773 12.87759,25.34253 2.19839,3.59035 3.94263,7.6113 3.90379,8.9993 -0.0801,2.86145 -3.15258,9.33496 -5.26126,11.085 -1.86533,1.54809 -4.01387,-2.15416 -12.9653,-22.34112 -7.89866,-17.81278 -8.51034,-18.26983 -13.66557,-10.21091 -1.81387,2.83554 -3.29794,5.67248 -3.29794,6.30432 0,1.81107 9.12434,18.49039 14.81299,27.07818 5.55987,8.39338 5.65751,9.12332 2.02334,15.12628 -2.06811,3.41613 -4.43718,3.91921 -6.67955,1.41844 -0.81612,-0.91016 -4.87351,-7.16972 -9.01642,-13.91013 -4.14292,-6.7404 -7.95504,-12.3961 -8.47139,-12.56821 -2.24253,-0.74752 -2.9206,13.96107 -1.10366,23.9406 2.96976,16.31135 16.73885,31.07753 33.02097,35.41218 11.40131,3.03527 25.33158,3.0114 37.48053,-0.0642 z"
     id="path290"
     transform="scale(0.08)" />
  <path
     style="fill:#000000;stroke-width:0.945626"
     d="m 616.4383,442.22417 c -10.14574,-2.58881 -18.30833,-10.10408 -19.83956,-18.26621 -1.06295,-5.66601 0.0375,-14.72585 2.37377,-19.54246 4.88208,-10.06536 17.02289,-18.60422 27.53293,-19.36445 8.86546,-0.64127 15.34769,1.79931 21.67687,8.16141 6.92532,6.96135 9.04425,13.05272 8.3029,23.86878 -0.86035,12.55224 -7.47774,21.33458 -18.49248,24.54251 -5.64633,1.64443 -16.29981,1.94119 -21.55443,0.60042 z m 19.48357,-14.11535 c 5.39105,-2.85085 7.57695,-7.02797 7.57695,-14.47905 0,-6.6219 -2.13893,-10.70976 -7.49095,-14.31649 -6.24424,-4.20799 -17.61491,-2.04563 -23.01976,4.37766 -5.75941,6.84468 -5.30406,17.37668 0.99787,23.07985 4.4274,4.00674 15.6005,4.68827 21.93589,1.33803 z"
     id="path292"
     transform="scale(0.08)" />
  <path
     style="fill:#000000;stroke-width:0.945626"
     d="m 628.66556,492.43499 c -11.32229,-13.78399 -26.77431,-33.77602 -26.77431,-34.64095 0,-1.22464 5.54164,-5.78458 7.02994,-5.78458 2.53444,0 29.72785,30.24396 33.15863,36.87834 1.41234,2.73118 1.36331,2.89416 -1.98618,6.60165 -1.88885,2.09073 -3.96582,3.80133 -4.61548,3.80133 -0.64965,0 -3.71533,-3.08511 -6.8126,-6.85579 z"
     id="path294"
     transform="scale(0.08)" />
  <path
     style="fill:#000000;stroke-width:0.945626"
     d="m 611.75516,509.43034 c -11.05672,-10.32897 -22.35127,-22.05993 -30.57973,-31.76133 l -5.90715,-6.96456 2.6137,-2.72811 c 4.83912,-5.05095 5.74441,-4.50601 25.05685,15.08281 9.67783,9.81633 19.42397,20.26893 21.6581,23.22801 l 4.06205,5.38015 -3.16747,3.268 c -1.74211,1.7974 -3.43247,3.268 -3.75636,3.268 -0.32389,0 -4.81488,-3.94784 -9.97999,-8.77297 z"
     id="path296"
     transform="scale(0.08)" />
  <path
     style="fill:#000000;stroke-width:0.945626"
     d="m 599.35567,531.58576 c -17.41607,-11.99775 -33.39822,-25.14274 -33.39822,-27.46936 0,-1.3543 3.34391,-7.33253 5.28625,-9.45075 0.39354,-0.42917 15.60498,10.85074 25.90671,19.21089 13.66989,11.09351 15.54434,13.89893 13.27489,19.86805 -1.32262,3.47874 -3.50344,3.05343 -11.06963,-2.15883 z"
     id="path298"
     transform="scale(0.08)" />
  <path
     style="fill:#000000;stroke-width:0.945626"
     d="m 511.11111,630.64499 c -20.7719,-7.49292 -21.27834,-7.60366 -38.29787,-8.3737 -20.40417,-0.92319 -28.92053,-3.03854 -38.77882,-9.63217 -12.29692,-8.22468 -22.21409,-20.73927 -22.21409,-28.03223 0,-11.62979 16.26862,-35.48476 30.75954,-45.10329 6.04037,-4.00937 8.08427,-4.10004 18.4828,-0.81998 6.26921,1.97753 9.8834,2.51638 16.95151,2.52733 8.29267,0.0128 10.32868,-0.40352 26.47755,-5.41458 31.00339,-9.6205 45.6667,-12.14135 59.35792,-10.20455 12.03641,1.7027 20.02186,7.24671 24.57492,17.0615 2.18147,4.70249 2.31498,5.81825 1.86686,15.60284 -0.71728,15.66208 -2.15568,19.28674 -11.43359,28.81189 -4.2347,4.34755 -11.95477,11.58884 -17.15571,16.09177 -5.20095,4.50292 -13.71159,12.28852 -18.91253,17.30131 -10.01095,9.64881 -15.44724,13.11663 -20.5297,13.09596 -1.71103,-0.007 -6.72799,-1.3174 -11.14879,-2.9121 z m 20.75085,-13.58485 c 2.58867,-1.90026 7.44478,-6.72894 10.79136,-10.73039 7.11781,-8.51065 16.74191,-17.88429 28.13647,-27.40422 l 8.14203,-6.80251 0.52251,-5.76227 c 0.61409,-6.77227 -0.56917,-16.27317 -2.68537,-21.56207 -1.13393,-2.83398 -2.36487,-4.09895 -5.02401,-5.16293 -5.1392,-2.0563 -13.72531,-3.46554 -21.1146,-3.46554 -6.07408,0 -6.52544,0.14813 -7.39134,2.42563 -0.50723,1.33409 -0.92223,5.96284 -0.92223,10.2861 0,8.56414 -0.55339,9.64164 -5.21217,10.14862 l -2.82565,0.3075 -0.26961,-10.28472 -0.26961,-10.28473 -3.98571,0.48387 c -2.19214,0.26612 -6.06284,1.39243 -8.60156,2.5029 l -4.61585,2.01905 0.4379,15.19429 0.43791,15.19429 -2.2666,0.86176 c -1.24661,0.47396 -3.46585,0.86175 -4.93162,0.86175 -3.45124,0 -3.72143,-1.04352 -4.46843,-17.25768 -0.43742,-9.49446 -0.9198,-13.00236 -1.78802,-13.00236 -0.65395,0 -3.62343,0.9316 -6.59884,2.07023 l -5.40984,2.07023 0.44364,21.52832 c 0.47889,23.23836 0.61609,22.55817 -4.5502,22.55817 -3.4405,0 -4.15003,-3.01195 -5.2274,-22.19025 -0.52631,-9.36878 -1.10338,-17.1806 -1.28239,-17.35961 -0.17901,-0.17901 -2.06274,-0.55849 -4.18608,-0.84328 l -3.8606,-0.51782 v 19.5527 19.5527 l -3.5461,-0.63036 c -1.95035,-0.34669 -3.9101,-0.96402 -4.355,-1.37184 -1.2899,-1.1824 -2.41426,-13.58373 -2.45926,-27.12506 l -0.0415,-12.4931 -3.829,-1.03105 c -2.10595,-0.56707 -4.62151,-0.7795 -5.59013,-0.47207 -2.65366,0.84223 -3.19573,7.64192 -1.92589,24.15777 1.23586,16.07382 1.02792,16.88093 -3.98074,15.45112 -2.85276,-0.81437 -3.20342,-1.33939 -4.1806,-6.25933 -0.58665,-2.95372 -1.37871,-9.94886 -1.76013,-15.54475 l -0.69348,-10.17434 -1.92375,2.33723 c -4.2152,5.1212 -9.17837,18.76702 -9.20198,25.3001 -0.0249,6.89065 6.73261,15.78482 15.32222,20.16691 4.94383,2.52215 16.09231,4.54623 25.32849,4.59854 14.01315,0.0794 22.2092,1.59476 33.63483,6.21885 5.93578,2.40229 11.96643,4.74206 13.40145,5.19951 4.57101,1.45712 9.38786,0.34614 14.37651,-3.31586 z"
     id="path300"
     transform="scale(0.08)" />
  <path
     style="fill:#000000;stroke-width:0.945626"
     d="m 507.42797,470.68558 c -1.08243,-2.8808 -2.75194,-16.22875 -3.40041,-27.18676 -0.6534,-11.04132 0.30816,-13.57528 5.31135,-13.99678 l 3.38526,-0.2852 1.54979,7.85021 c 1.63792,8.29664 3.41267,23.43236 3.44015,29.33893 0.0137,2.95143 -0.43546,3.75547 -2.77353,4.96454 -3.97721,2.05669 -6.57133,1.82018 -7.51261,-0.68494 z"
     id="path302"
     transform="scale(0.08)" />
  <path
     style="fill:#000000;stroke-width:0.945626"
     d="m 484.12771,482.80909 c -1.96177,-4.69518 -5.82456,-18.33793 -8.58329,-30.31481 l -2.39318,-10.38987 2.64913,-2.11235 c 3.86509,-3.08191 7.91025,-3.76293 9.49313,-1.5982 3.34806,4.57874 8.35167,23.97632 10.24727,39.72576 l 0.58176,4.83356 -3.87236,1.54942 c -5.49353,2.19807 -6.59216,1.96901 -8.12246,-1.69351 z"
     id="path304"
     transform="scale(0.08)" />
  <path
     style="fill:#000000;stroke-width:0.945626"
     d="m 461.67915,487.33206 c -4.3759,-13.34278 -7.00587,-22.76184 -6.49748,-23.27023 1.45645,-1.45645 8.51189,-1.99511 9.99628,-0.76318 2.96883,2.46391 15.67311,35.63362 15.67311,40.92106 0,2.94299 -1.4561,3.83238 -8.03782,4.90947 l -3.78251,0.61901 z"
     id="path306"
     transform="scale(0.08)" />
  <path
     style="fill:#000000;stroke-width:0.945626"
     d="m 396.68419,466.25594 c -16.72106,-5.08631 -20.11679,-23.72719 -6.69506,-36.75253 10.05226,-9.7554 23.87681,-10.50643 33.05778,-1.79591 4.82055,4.57353 6.69536,9.45167 6.71956,17.48384 0.0327,10.84625 -4.21423,17.01935 -14.11105,20.51115 -4.23516,1.49425 -14.85947,1.8042 -18.97123,0.55345 z m 16.59756,-14.67631 c 3.34297,-3.34297 3.3086,-10.61791 -0.0661,-13.99262 -2.976,-2.976 -6.66902,-3.73699 -10.45616,-2.15462 -6.85284,2.8633 -9.35833,11.48263 -4.69372,16.14724 1.91083,1.91082 3.25557,2.32108 7.608,2.32108 4.35243,0 5.69717,-0.41026 7.60799,-2.32108 z"
     id="path308"
     transform="scale(0.08)" />
  <path
     style="fill:#000000;stroke-width:0.945626"
     d="m 309.69267,599.49002 c -6.58474,-1.37178 -15.56621,-6.20861 -18.38077,-9.89869 -6.03772,-7.91585 -7.09526,-18.161 -2.7705,-26.83967 6.31227,-12.66706 24.68939,-17.92242 39.29292,-11.23671 11.27654,5.16258 16.47795,13.23895 15.68287,24.35125 -1.04708,14.63429 -9.71123,23.5961 -23.42263,24.22734 -3.38061,0.15563 -8.06146,-0.11595 -10.40189,-0.60352 z m 16.77469,-10.93706 c 5.7704,-4.20503 8.63006,-15.0436 5.53738,-20.98763 -5.5938,-10.75112 -22.63137,-13.10668 -30.99895,-4.28581 -4.85139,5.11419 -5.77746,11.23465 -2.71911,17.97064 2.95336,6.50472 10.11691,9.96242 19.67004,9.49433 4.06459,-0.19916 6.71211,-0.88091 8.51064,-2.19153 z"
     id="path310"
     transform="scale(0.08)" />
</svg>
