<?xml version="1.0" encoding="UTF-8" standalone="no"?>
<!-- Uploaded to: SVG Repo, www.svgrepo.com, Generator: SVG Repo Mixer Tools -->

<svg
   height="800px"
   width="800px"
   version="1.1"
   id="_x32_"
   viewBox="0 0 512 512"
   xml:space="preserve"
   sodipodi:docname="scissors.svg"
   inkscape:version="1.2.2 (732a01da63, 2022-12-09, custom)"
   xmlns:inkscape="http://www.inkscape.org/namespaces/inkscape"
   xmlns:sodipodi="http://sodipodi.sourceforge.net/DTD/sodipodi-0.dtd"
   xmlns="http://www.w3.org/2000/svg"
   xmlns:svg="http://www.w3.org/2000/svg"><defs
   id="defs29" /><sodipodi:namedview
   id="namedview27"
   pagecolor="#505050"
   bordercolor="#ffffff"
   borderopacity="1"
   inkscape:showpageshadow="0"
   inkscape:pageopacity="0"
   inkscape:pagecheckerboard="1"
   inkscape:deskcolor="#505050"
   showgrid="false"
   inkscape:zoom="0.52875"
   inkscape:cx="152.24586"
   inkscape:cy="648.69976"
   inkscape:window-width="1920"
   inkscape:window-height="1013"
   inkscape:window-x="0"
   inkscape:window-y="31"
   inkscape:window-maximized="1"
   inkscape:current-layer="_x32_" />
<style
   type="text/css"
   id="style18">
	.st0{fill:#000000;}
</style>
<g
   id="g24"
   transform="matrix(0.83215113,0,0,0.82172049,49.856726,49.25229)"
   style="fill:#d8d9da;fill-opacity:1">
	<polygon
   class="st0"
   points="125.1,176.84 125.084,176.832 124.47,176.777 "
   id="polygon20"
   style="fill:#d8d9da;fill-opacity:1" />
	<path
   class="st0"
   d="M 467.126,80.604 C 466.088,69.146 462.879,58.318 457.957,48.599 450.581,34.004 439.352,21.869 425.699,13.377 412.079,4.883 395.959,0 378.973,0 c -2.642,0 -5.332,0.118 -8.052,0.37 l 0.724,-0.071 -0.756,0.071 c -11.465,1.038 -22.286,4.246 -32.005,9.169 -14.595,7.384 -26.721,18.622 -35.214,32.25 -8.508,13.627 -13.384,29.748 -13.368,46.734 0,2.673 0.11,5.378 0.362,8.084 1.038,11.465 4.23,22.285 9.169,32.005 3.979,7.879 9.09,15.036 15.098,21.295 1.919,3.947 2.863,10.694 -3.272,20.595 l -27.192,38.053 c -10.742,14.108 -19.912,18.283 -28.467,19.99 -8.556,-1.706 -17.709,-5.882 -28.466,-19.99 l -27.177,-38.053 c -6.134,-9.9 -5.191,-16.648 -3.287,-20.595 2.296,-2.391 4.467,-4.914 6.495,-7.557 9.798,-12.81 16.23,-28.537 17.788,-45.743 0.236,-2.706 0.361,-5.411 0.361,-8.084 0,-11.324 -2.17,-22.271 -6.133,-32.336 C 209.636,41.089 199.664,27.941 186.863,18.159 174.044,8.359 158.317,1.919 141.126,0.37 138.405,0.118 135.7,0 133.026,0 121.702,0 110.756,2.163 100.69,6.126 85.592,12.087 72.444,22.058 62.662,34.86 52.879,47.67 46.431,63.405 44.89,80.604 v -0.008 c -0.251,2.713 -0.377,5.41 -0.377,8.092 0,11.323 2.17,22.262 6.134,32.327 5.945,15.114 15.916,28.254 28.734,38.045 12.786,9.783 28.514,16.215 45.704,17.772 l 0.032,0.008 c 2.706,0.244 5.394,0.362 8.084,0.362 7.832,0 15.476,-1.062 22.789,-3.012 9.216,0.574 14.123,5.395 18.008,11.128 4.262,6.275 31.628,45.892 42.465,61.58 -5.473,7.321 -11.293,17.961 -17.662,33.531 -15.648,38.241 -49.038,101.324 -61.982,168.96 -4.058,21.248 -5.394,55.77 5.316,62.611 C 169.122,468.286 221.148,377.137 256,315.564 290.868,377.137 342.878,468.286 369.882,512 c 10.694,-6.841 9.374,-41.363 5.3,-62.611 -12.928,-67.636 -46.317,-130.719 -61.982,-168.96 -6.37,-15.57 -12.188,-26.21 -17.662,-33.531 10.852,-15.688 38.202,-55.305 42.464,-61.58 3.884,-5.726 8.792,-10.538 17.976,-11.128 7.329,1.966 14.972,3.012 22.837,3.012 2.673,0 5.363,-0.118 8.068,-0.362 h 0.016 c 11.465,-1.038 22.286,-4.238 32.006,-9.169 14.579,-7.392 26.721,-18.614 35.213,-32.249 8.493,-13.636 13.385,-29.749 13.369,-46.734 0,-2.682 -0.11,-5.38 -0.361,-8.084 z M 188.859,93.665 c -0.66,7.306 -2.689,14.084 -5.787,20.21 -4.64,9.185 -11.765,16.884 -20.398,22.27 -8.65,5.379 -18.747,8.438 -29.474,8.438 -1.698,0 -3.413,-0.079 -5.158,-0.236 -7.297,-0.668 -14.076,-2.681 -20.194,-5.78 -9.201,-4.647 -16.892,-11.772 -22.27,-20.398 -5.379,-8.65 -8.446,-18.739 -8.446,-29.481 0,-1.699 0.079,-3.414 0.236,-5.135 0.661,-7.313 2.674,-14.092 5.772,-20.218 4.656,-9.193 11.765,-16.891 20.415,-22.262 8.65,-5.387 18.732,-8.446 29.473,-8.446 1.699,0 3.413,0.07 5.128,0.228 l 0.016,0.008 c 7.313,0.66 14.092,2.674 20.21,5.772 9.184,4.647 16.891,11.764 22.27,20.414 5.379,8.643 8.445,18.732 8.445,29.474 -0.002,1.689 -0.08,3.404 -0.238,5.142 z m 242.156,15.405 c -3.743,9.523 -10.097,17.874 -18.181,24.055 -8.116,6.197 -17.93,10.224 -28.876,11.222 -1.746,0.157 -3.46,0.236 -5.143,0.236 -7.172,0 -14.029,-1.368 -20.384,-3.869 -9.531,-3.736 -17.882,-10.074 -24.063,-18.173 -6.196,-8.115 -10.223,-17.914 -11.229,-28.876 -0.157,-1.738 -0.236,-3.452 -0.236,-5.142 0,-7.164 1.368,-14.029 3.869,-20.383 3.743,-9.515 10.097,-17.874 18.181,-24.063 8.115,-6.196 17.93,-10.223 28.892,-11.213 l 0.015,-0.008 c 1.699,-0.158 3.413,-0.228 5.112,-0.228 7.172,0 14.029,1.36 20.383,3.853 9.531,3.751 17.882,10.089 24.062,18.189 6.197,8.115 10.224,17.92 11.214,28.883 0.173,1.722 0.252,3.444 0.252,5.135 0.001,7.171 -1.383,14.028 -3.868,20.382 z"
   id="path22"
   style="fill:#d8d9da;fill-opacity:1" />
</g>
<rect
   style="fill:none;stroke-width:0.64"
   id="rect189"
   width="509.92868"
   height="55.773232"
   x="0.62858301"
   y="513.09045" /><rect
   style="fill:none;stroke-width:0.64"
   id="rect191"
   width="514.96161"
   height="76.572479"
   x="-1.1832904"
   y="507.80161"
   ry="24.244497"
   rx="0" /><rect
   style="fill:none;stroke-width:1.9685"
   id="rect195"
   width="438.07285"
   height="381.28497"
   x="497.91187"
   y="-56.583408"
   ry="3.4191279" /></svg>
